<?xml version="1.0" encoding="UTF-8" standalone="no"?>
<svg
   xmlns:dc="http://purl.org/dc/elements/1.1/"
   xmlns:cc="http://creativecommons.org/ns#"
   xmlns:rdf="http://www.w3.org/1999/02/22-rdf-syntax-ns#"
   xmlns:svg="http://www.w3.org/2000/svg"
   xmlns="http://www.w3.org/2000/svg"
   xmlns:sodipodi="http://sodipodi.sourceforge.net/DTD/sodipodi-0.dtd"
   xmlns:inkscape="http://www.inkscape.org/namespaces/inkscape"
   inkscape:version="1.0 (4035a4fb49, 2020-05-01)"
   sodipodi:docname="iconfinder_Streamline-58_185078.svg"
   id="svg21"
   xml:space="preserve"
   width="48px"
   viewBox="0 0 48 48"
   version="1.1"
   height="48px"
   enable-background="new 0 0 48 48"><metadata
     id="metadata27"><rdf:RDF><cc:Work
         rdf:about=""><dc:format>image/svg+xml</dc:format><dc:type
           rdf:resource="http://purl.org/dc/dcmitype/StillImage" /></cc:Work></rdf:RDF></metadata><defs
     id="defs25" /><sodipodi:namedview
     inkscape:current-layer="svg21"
     inkscape:window-maximized="1"
     inkscape:window-y="-9"
     inkscape:window-x="-9"
     inkscape:cy="24"
     inkscape:cx="24"
     inkscape:zoom="17.291667"
     showgrid="false"
     id="namedview23"
     inkscape:window-height="1001"
     inkscape:window-width="1920"
     inkscape:pageshadow="2"
     inkscape:pageopacity="0"
     guidetolerance="10"
     gridtolerance="10"
     objecttolerance="10"
     borderopacity="1"
     bordercolor="#666666"
     pagecolor="#ffffff" /><g
     style="stroke:none;stroke-opacity:1;fill:#f8f8ff;fill-opacity:1"
     id="Expanded"><g
       style="stroke:none;stroke-opacity:1;fill:#f8f8ff;fill-opacity:1"
       id="g18"><g
         style="stroke:none;stroke-opacity:1;fill:#f8f8ff;fill-opacity:1"
         id="g4"><path
           style="stroke:none;stroke-opacity:1;fill:#f8f8ff;fill-opacity:1"
           id="path2"
           d="M44,40H4c-2.206,0-4-1.794-4-4V12c0-2.206,1.794-4,4-4h40c2.206,0,4,1.794,4,4v24C48,38.206,46.206,40,44,40z M4,10     c-1.103,0-2,0.897-2,2v24c0,1.103,0.897,2,2,2h40c1.103,0,2-0.897,2-2V12c0-1.103-0.897-2-2-2H4z" /></g><g
         style="stroke:none;stroke-opacity:1;fill:#f8f8ff;fill-opacity:1"
         id="g8"><path
           style="stroke:none;stroke-opacity:1;fill:#f8f8ff;fill-opacity:1"
           id="path6"
           d="M24,29.191L6.457,17.84c-0.464-0.301-0.597-0.919-0.297-1.383s0.919-0.596,1.383-0.297L24,26.809L40.457,16.16     c0.464-0.299,1.083-0.167,1.383,0.297s0.167,1.082-0.297,1.383L24,29.191z" /></g><g
         style="stroke:none;stroke-opacity:1;fill:#f8f8ff;fill-opacity:1"
         id="g12"><path
           style="stroke:none;stroke-opacity:1;fill:#f8f8ff;fill-opacity:1"
           id="path10"
           d="M6.001,34c-0.323,0-0.641-0.156-0.833-0.445c-0.307-0.46-0.183-1.08,0.277-1.387l9-6c0.46-0.307,1.081-0.183,1.387,0.277     c0.307,0.46,0.183,1.08-0.277,1.387l-9,6C6.384,33.945,6.191,34,6.001,34z" /></g><g
         style="stroke:none;stroke-opacity:1;fill:#f8f8ff;fill-opacity:1"
         id="g16"><path
           style="stroke:none;stroke-opacity:1;fill:#f8f8ff;fill-opacity:1"
           id="path14"
           d="M41.999,34c-0.19,0-0.383-0.055-0.554-0.168l-9-6c-0.46-0.307-0.584-0.927-0.277-1.387     c0.306-0.46,0.926-0.584,1.387-0.277l9,6c0.46,0.307,0.584,0.927,0.277,1.387C42.64,33.844,42.322,34,41.999,34z" /></g></g></g></svg>
